<?xml version="1.0" encoding="UTF-8" standalone="no"?>
<svg
   xmlns:dc="http://purl.org/dc/elements/1.1/"
   xmlns:cc="http://creativecommons.org/ns#"
   xmlns:rdf="http://www.w3.org/1999/02/22-rdf-syntax-ns#"
   xmlns:svg="http://www.w3.org/2000/svg"
   xmlns="http://www.w3.org/2000/svg"
   viewBox="0 0 640 640"
   height="640"
   width="640"
   xml:space="preserve"
   version="1.1"
   id="svg4198"><metadata
     id="metadata4204"><rdf:RDF><cc:Work
         rdf:about=""><dc:format>image/svg+xml</dc:format><dc:type
           rdf:resource="http://purl.org/dc/dcmitype/StillImage" /><dc:title></dc:title></cc:Work></rdf:RDF></metadata><defs
     id="defs4202"><clipPath
       id="clipPath4212"
       clipPathUnits="userSpaceOnUse"><path
         id="path4214"
         d="M 0,512 512,512 512,0 0,0 0,512 Z" /></clipPath></defs><g
     transform="matrix(1.25,0,0,-1.25,0,640)"
     id="g4206"><g
       id="g4208"><g
         clip-path="url(#clipPath4212)"
         id="g4210"><g
           transform="translate(254.8198,324.9283)"
           id="g4216"><path
             id="path4218"
             style="fill:#cccccc;fill-opacity:1;fill-rule:nonzero;stroke:none"
             d="m 0,0 -189.736,-203.062 c -10.587,-11.33 -4.928,-29.873 10.181,-33.361 L 24.448,-283.52 c 7.001,-1.617 14.333,0.621 19.238,5.871 l 181.81,194.579 c 10.587,11.33 4.928,29.873 -10.181,33.361 L 0,0 Z" /></g><g
           transform="translate(268.8204,67.1462)"
           id="g4220"><path
             id="path4222"
             style="fill:#272425;fill-opacity:1;fill-rule:nonzero;stroke:none"
             d="m 0,0 27.291,-4.666 c 3.458,-0.591 7.019,-0.488 10.457,0.302 L 39.755,-3.902 24.947,35.015 0,0 Z" /></g><g
           transform="translate(403.75,205.8333)"
           id="g4224"><path
             id="path4226"
             style="fill:#272425;fill-opacity:1;fill-rule:nonzero;stroke:none"
             d="m 0,0 24.276,-4.353 c 3.076,-0.552 6.233,-0.456 9.27,0.282 L 35.319,-3.64 21.583,32.667 0,0 Z" /></g><g
           transform="translate(283.8443,71.1198)"
           id="g4228"><path
             id="path4230"
             style="fill:#8e3531;fill-opacity:1;fill-rule:nonzero;stroke:none"
             d="M 0,0 C -3.776,-4.102 -9.44,-5.899 -14.89,-4.725 L -132.594,20.63 -236.376,48.036 c -6.907,1.824 -11.718,8.071 -11.718,15.214 l 0,44.327 c 0,4.933 1.406,9.764 4.053,13.927 l 40.023,62.945 c 8.434,13.264 17.976,25.789 28.523,37.443 l 81.901,90.488 66.497,58.597 c 5.866,5.169 13.716,7.483 21.448,6.322 l 37.532,-5.636 c 15.67,-2.354 31.204,-5.544 46.534,-9.558 l 45.739,-11.975 51.694,-24.487 c 6.194,-2.933 10.276,-9.03 10.63,-15.874 L 191.156,219.38 157.144,180.411 139.822,151.88 0,0 Z" /></g><g
           transform="translate(376.7026,374.9453)"
           id="g4232"><path
             id="path4234"
             style="fill:#272425;fill-opacity:1;fill-rule:nonzero;stroke:none"
             d="m 0,0 27.049,-68.473 c 0.356,-0.901 0.168,-1.926 -0.486,-2.642 l -47.723,-52.301 c -6.409,-7.025 -18.054,-1.648 -16.865,7.787 l 11.085,87.88 c 0.601,4.767 2.806,9.189 6.251,12.538 L -4.128,0.887 C -2.83,2.149 -0.665,1.684 0,0" /></g><g
           transform="translate(383.4201,384.1104)"
           id="g4236"><path
             id="path4238"
             style="fill:#272425;fill-opacity:1;fill-rule:nonzero;stroke:none"
             d="m 0,0 28.262,-61.502 c 0.792,-1.724 3.128,-2 4.301,-0.507 l 23.467,29.882 c 5.992,7.629 5.237,18.555 -1.746,25.289 L 29.403,17.151 C 25.5,20.914 19.321,20.92 15.411,17.164 L 0.548,2.889 C -0.231,2.141 -0.451,0.982 0,0" /></g><g
           transform="translate(324.4084,213.9458)"
           id="g4240"><path
             id="path4242"
             style="fill:#ce5734;fill-opacity:1;fill-rule:nonzero;stroke:none"
             d="m 0,0 18.134,136.873 c 0.618,4.661 2.75,8.99 6.068,12.32 l 56.843,57.046 c 0.441,0.443 0.782,0.937 1.044,1.459 l -44.236,11.581 c -15.33,4.014 -30.864,7.204 -46.535,9.558 l -37.531,5.636 c -7.732,1.161 -15.582,-1.153 -21.448,-6.322 l -66.497,-58.597 -81.901,-90.488 c -10.547,-11.654 -20.089,-24.179 -28.523,-37.443 l -40.023,-62.945 c -1.314,-2.066 -2.32,-4.297 -3.003,-6.623 2.813,-5.823 7.935,-10.519 14.614,-12.59 l 23.353,-7.243 c 44.485,-13.796 89.673,-25.21 135.373,-34.193 l 36.25,-7.125 c 12.551,-2.467 25.319,3.098 32.056,13.972 L -0.794,-2.221 C -0.375,-1.545 -0.104,-0.788 0,0" /></g><g
           transform="translate(334.1277,345.5676)"
           id="g4244"><path
             id="path4246"
             style="fill:#272425;fill-opacity:1;fill-rule:nonzero;stroke:none"
             d="m 0,0 -15.482,-111.878 c -0.802,-5.798 -6.322,-9.722 -12.062,-8.576 l -75.733,13.84 c -20.226,3.696 -40.296,8.199 -60.162,13.497 l -62.167,16.58 c -5.159,1.274 -7.116,7.574 -3.587,11.546 l 83.654,94.147 c 2.628,2.957 6.63,4.292 10.507,3.505 L -4.339,6.123 C -1.503,5.548 0.397,2.866 0,0" /></g><g
           transform="translate(469.0438,260.4167)"
           id="g4248"><path
             id="path4250"
             style="fill:#272425;fill-opacity:1;fill-rule:nonzero;stroke:none"
             d="M 0,0 C -5.41,-32.263 -19.65,-58.318 -31.805,-58.417 -43.559,-58.512 -49.405,-32.268 -44.019,0 -38.633,32.267 -24.37,58.417 -12.214,58.417 -0.059,58.417 5.41,32.263 0,0" /></g><g
           transform="translate(465.451,258.9519)"
           id="g4252"><path
             id="path4254"
             style="fill:#808082;fill-opacity:1;fill-rule:nonzero;stroke:none"
             d="m 0,0 c -3.632,-21.658 -13.191,-39.215 -21.351,-39.215 -8.159,0 -11.83,17.557 -8.199,39.215 3.632,21.658 13.191,39.215 21.351,39.215 C -0.039,39.215 3.632,21.658 0,0" /></g><g
           transform="translate(343.4625,125.653)"
           id="g4256"><path
             id="path4258"
             style="fill:#272425;fill-opacity:1;fill-rule:nonzero;stroke:none"
             d="M 0,0 C -6.703,-34.582 -23.247,-62.509 -36.954,-62.616 -50.209,-62.718 -56.31,-34.588 -49.633,0 -42.956,34.586 -26.385,62.616 -12.679,62.616 1.027,62.616 6.703,34.582 0,0" /></g><g
           transform="translate(339.3841,124.083)"
           id="g4260"><path
             id="path4262"
             style="fill:#808082;fill-opacity:1;fill-rule:nonzero;stroke:none"
             d="m 0,0 c -4.5,-23.214 -15.606,-42.033 -24.807,-42.033 -9.201,0 -13.011,18.819 -8.511,42.033 4.5,23.214 15.606,42.033 24.807,42.033 C 0.689,42.033 4.5,23.214 0,0" /></g></g></g></g></svg>